<?xml version="1.0" encoding="UTF-8"?> <svg xmlns="http://www.w3.org/2000/svg" xmlns:xlink="http://www.w3.org/1999/xlink" version="1.1" id="Layer_1" x="0px" y="0px" viewBox="0 0 1621 624" style="enable-background:new 0 0 1621 624;" xml:space="preserve"> <style type="text/css"> .st0{fill:#CAE8DC;} </style> <path class="st0" d="M7.7,624L0,597.3c57.6-16.8,106.6-38.3,145.4-64c22.6-15,42.4-31.8,58.7-49.8c13.6-15,25.2-31.3,34.6-48.6 c-47.2-17.9-88.4-53.1-112.1-98.8c-5.4-10.3-14.6-30.7-15.3-53.2c-0.6-23,7.8-41.6,24.5-53.9l0.1-0.1c10.8-7.7,24-12.5,39.4-14.1 c12.5-1.3,26.3-0.5,39.9,2.3l0.1,0c21.4,4.7,39.4,15.1,52,30.3c14.9,17.7,23.6,42.1,25.8,72.6c2.2,31.7-3.2,65-15.8,97.3 c11.3,2.2,22.8,3.2,34.2,2.9h0.1c38.4-0.6,76.9-15.2,108.4-41.1l0.1-0.1c26.2-21.3,46-49.8,57.3-82.5l0.1-0.2 c2-5.5,3.8-11.1,5.7-16.9c4.7-14.5,9.6-29.5,17.5-43.4c12.2-21.9,31.8-37.8,55.4-44.7c15.7-4.8,33.3-6.2,52.4-4.2 c16.3,1.7,33.7,6,50.2,12.5l0.1,0c17.2,6.9,33.7,15.2,49.6,23.3c38.6,19.5,75.1,38,118.8,34.8l0.2,0c41.5-2.4,81.3-20.7,107.6-34.3 c35.5-18.6,67-39.2,93.5-61.4c10.2-8.5,20.6-18.1,33.7-30.9c19.2-18.8,42.3-40.5,68-58.5c26.6-18.6,61.2-33.8,102.6-45.2 c34.7-9.5,75.2-16.6,120.5-21c81.7-8,162.4-6.2,215.8-5c22.6,0.5,40.5,0.9,50.1,0.4l1.6,27.7c-10.8,0.6-28.2,0.2-52.4-0.3 c-103-2.4-317.4-7.3-422.4,66.2c-24.1,16.9-46.1,37.6-64.5,55.6c-13.7,13.4-24.6,23.4-35.3,32.4c-28,23.5-61.2,45.2-98.5,64.7 l-0.1,0c-20.7,10.7-39.3,18.8-56.8,24.7c-21.7,7.3-42,11.5-61.8,12.6c-4.1,0.3-8.1,0.4-12,0.4c-45.9,0-84.2-19.4-121.2-38.1 c-15.3-7.8-31.2-15.8-47.3-22.3c-30.5-11.9-61.2-14.7-84.4-7.5l-0.2,0.1c-16.6,4.9-30.5,16.1-39.1,31.7l-0.1,0.1 c-6.5,11.5-10.8,24.5-15.3,38.3c-1.9,5.8-3.9,11.8-6,17.7c-13,37.6-35.8,70.4-65.9,94.9c-36.3,29.8-80.8,46.7-125.4,47.4 c-15.6,0.3-31.2-1.4-46.5-4.8c-10.9,21.1-24.7,41-41.1,59.2c-17.9,19.8-39.5,38.1-64,54.4C118.9,584.1,68.9,606.2,7.7,624L7.7,624z M152.2,251.3c-9.2,6.8-13.6,16.9-13.2,30.7c0.3,12.3,4.7,27.2,12,41l0.1,0.1c14.9,28.8,38.1,53.3,67,70.9 c10.4,6.3,21.3,11.6,32.4,15.6c11.8-29.3,17-59.4,15-87.8c-1.2-16.8-5.6-40.3-19.3-56.6l-0.1-0.1c-10.9-13.1-25.9-18.6-36.6-20.9 C198.5,241.8,171,237.9,152.2,251.3L152.2,251.3z"></path> </svg> 