<?xml version="1.0" encoding="UTF-8"?> <svg xmlns="http://www.w3.org/2000/svg" xmlns:xlink="http://www.w3.org/1999/xlink" version="1.1" id="Layer_1" x="0px" y="0px" viewBox="0 0 116 40" style="enable-background:new 0 0 116 40;" xml:space="preserve"> <style type="text/css"> .st0{fill:#FFFFFF;} </style> <g> <path class="st0" d="M53,23v2h-7.1v2.2h4c2.2,0,4.3,1.5,4.3,3.6c0,2.2-1.9,3.7-4.3,3.7h-6.3V23L53,23L53,23z M49.8,29.1h-4v3.2h4 c1.1,0,1.9-0.7,1.9-1.6C51.7,29.9,50.9,29.1,49.8,29.1z"></path> <path class="st0" d="M64.7,34.4v-7.6l-7.2,7.6h-1.9V23H58v7.6l7.2-7.6H67v11.4H64.7z"></path> <path class="st0" d="M72.5,25.1h-4.1V23h10.5c0,1.2-1,2.1-2.1,2.1h-1.9v9.3h-2.3V25.1z"></path> <path class="st0" d="M45.8,5.8v9.3h5.5v-7c0-1.3,1-2.3,2.3-2.3v9.3h5.5v-7c0-1.3,1-2.3,2.3-2.3v11.4h-18V8.1 C43.5,6.9,44.5,5.8,45.8,5.8z"></path> <path class="st0" d="M66.1,17.3h-2.3V5.8h2.3v4.7h1.3l4.5-4.7h3.1l-5.5,5.7l5.9,5.7h-3.2l-4.9-4.7h-1.3L66.1,17.3L66.1,17.3z"></path> <path class="st0" d="M81.7,5.6c3.6,0,6.3,2.4,6.3,6c0,3.6-2.7,5.9-6.3,5.9s-6.4-2.5-6.4-5.9C75.4,8.2,78.1,5.6,81.7,5.6z M81.7,15.3c2.4,0,4-1.6,4-3.8c0-2.2-1.6-3.8-4-3.8c-2.4,0-4,1.5-4,3.8C77.7,13.8,79.4,15.3,81.7,15.3z"></path> <path class="st0" d="M101,5.8v11.4h-2.3V7.9h-5.3l-0.5,4.8c-0.3,3.6-1.4,4.8-4,4.8v-2.1c1.1,0,1.5-0.7,1.7-2.5l0.7-7H101z"></path> <path class="st0" d="M107.6,5.8h2.6l5.9,11.4h-2.6l-1.4-2.7h-6.3l-1.4,2.7h-2.6L107.6,5.8L107.6,5.8z M111,12.5l-2.1-4.1l-2.1,4.1 H111z"></path> <path class="st0" d="M31.9,2.9v20c0,7.9-6.5,14.3-14.5,14.3c-8,0-14.5-6.4-14.5-14.3v-20H31.9z M34.8,0H0v22.9 C0,32.3,7.8,40,17.4,40c9.6,0,17.4-7.7,17.4-17.1V0z"></path> <path class="st0" d="M9.2,11.4c-1.2,0-2.3,0.1-3.4,0.4v3c1.1-0.3,2.2-0.5,3.4-0.5c6.4,0,11.6,5.1,11.6,11.4c0,3.4-1.5,6.5-4,8.6 c0.2,0,0.4,0,0.6,0c1.3,0,2.6-0.2,3.8-0.6c1.6-2.3,2.5-5,2.5-8C23.7,17.8,17.2,11.4,9.2,11.4L9.2,11.4z"></path> <path class="st0" d="M9.2,17.1c-1.2,0-2.3,0.2-3.4,0.7v3.3c1-0.7,2.1-1.1,3.4-1.1c3.2,0,5.8,2.6,5.8,5.7c0,3.2-2.4,5.5-5.3,5.7 c1,0.8,2.1,1.5,3.3,2c2.9-1.4,5-4.3,5-7.7C17.9,21,14,17.1,9.2,17.1L9.2,17.1z"></path> <path class="st0" d="M9.2,5.7c-0.5,0-1,0-1.5,0.1C7,5.8,6.4,5.9,5.8,6v2.9C6.9,8.7,8,8.6,9.2,8.6c9.6,0,17.4,7.7,17.4,17.1 c0,1.8-0.3,3.5-0.8,5.1c2-2.1,3.2-4.8,3.2-7.9v-1.5c-1.9-8.5-9.3-15-18.3-15.6C10.2,5.7,9.7,5.7,9.2,5.7L9.2,5.7z"></path> <path class="st0" d="M9.2,28.6c1.6,0,2.9-1.3,2.9-2.9c0-1.6-1.3-2.9-2.9-2.9c-1.6,0-2.9,1.3-2.9,2.9C6.3,27.3,7.6,28.6,9.2,28.6z"></path> </g> </svg> 